<?xml version="1.0" encoding="UTF-8"?>
<svg width="256px" height="256px" viewBox="0 0 256 256" version="1.1" xmlns="http://www.w3.org/2000/svg" xmlns:xlink="http://www.w3.org/1999/xlink">
    <!-- Generator: Sketch 54.1 (76490) - https://sketchapp.com -->
    <title>Artboard</title>
    <desc>Created with Sketch.</desc>
    <g id="Artboard" stroke="none" stroke-width="1" fill="none" fill-rule="evenodd">
        <rect fill="#FFFFFF" x="0" y="0" width="256" height="256"></rect>
        <g id="Group" transform="translate(88.859927, 105.161197) rotate(30.000000) translate(-88.859927, -105.161197) translate(52.359927, 18.661197)">
            <path d="M2.06165723,92.0927367 C2.4023279,88.0797772 2.74921313,84.0349422 3.89382141,80.170735 C5.03899464,76.3065279 7.05307583,72.5871587 10.2134602,70.051098 C13.4359901,67.465826 17.5878786,66.2987348 21.6872259,65.6712905 C28.4955548,64.6305829 35.4304346,64.9079558 42.3139031,65.188684 C46.9256689,65.3765817 51.5888459,65.5723086 56.026604,66.8277565 C59.8592904,67.9120832 63.6207918,69.9252736 65.7382606,73.2682881 C67.5500862,76.1286961 67.9636367,79.6148708 68.3336853,82.9707473 L70.1974872,99.8787505 C70.7127304,104.558859 71.2285386,109.240086 71.6240103,113.931379 C68.0738038,107.67483 61.6479527,103.34703 54.7322814,101.19068 C47.8177402,99.034329 40.4178985,98.8704777 33.1914995,99.4481515 C27.3373875,99.9167775 21.4810156,100.870247 15.9816983,102.910839 C11.4642809,104.58682 7.96548568,107.113374 4.12997455,109.893814 C2.85938027,110.814848 0.976934679,110.597312 0.678071018,108.827941 C0.485984733,107.68937 0.859988029,106.246024 0.95772605,105.096269 L1.29557193,101.120218 C1.55093369,98.1110575 1.80629546,95.1018971 2.06165723,92.0927367" id="Fill-192" fill="#FDBEBE"></path>
            <path d="M27.3356842,110.408331 C27.542212,109.766419 27.7553841,109.119448 27.9746469,108.466857 L36.9826916,105.987458 L45.9453335,108.466857 C53.6538589,131.421668 53.77844,147.609986 36.9599902,171.987458 C23.138685,151.973525 20.7594627,137.478797 24.6170475,120.227558" id="Fill-194" fill="#FFFFFF"></path>
            <path d="M26.1265541,110.754285 L26.7879941,108.812867 C26.8565371,108.610718 27.0216115,108.467365 27.2158167,108.413608 L27.2238134,108.411928 L36.5159595,105.941898 C36.6290555,105.91222 36.7450074,105.91446 36.8501066,105.941898 L46.0965575,108.411928 C46.3061848,108.467925 46.4644049,108.625277 46.5318055,108.812867 C48.3676155,114.126987 49.9806608,119.548062 50.9151304,125.123128 C51.8433169,130.690915 52.0083913,136.421653 51.1310409,142.024158 C50.2759669,147.630583 48.4098837,153.048298 45.9394797,158.13563 C43.4679334,163.231362 40.436048,168.029189 37.1813978,172.652306 C36.9820519,172.934531 36.5873585,173.005087 36.3000491,172.810777 C36.2355044,172.7671 36.1812412,172.711663 36.1384018,172.652866 C33.4686519,168.873065 30.9365592,164.985749 28.7637461,160.894605 C26.5937889,156.8057 24.7648332,152.518006 23.530488,148.050001 C22.2881461,143.587596 21.6689743,138.95384 21.7095289,134.331283 C21.733519,129.707607 22.4178066,125.102409 23.652723,120.669123 C23.6932776,120.52241 23.8480706,120.436175 23.9977228,120.475933 C24.1393783,120.514011 24.2256283,120.652324 24.2004958,120.791196 C23.3716967,125.28216 22.7650911,129.800562 22.7639488,134.335763 C22.7605216,138.867045 23.4019699,143.387127 24.6523084,147.746497 C25.8957927,152.109787 27.7230349,156.304526 29.8918497,160.315595 C32.0618068,164.330024 34.5333532,168.191581 37.1808266,171.936103 L36.1384018,171.936103 C39.3644924,167.356105 42.3592503,162.612594 44.7890997,157.601978 C47.2189491,152.598642 49.0387658,147.303 49.8727056,141.838248 C50.7266372,136.376856 50.5701306,130.79171 49.6596511,125.324158 C48.7417461,119.851006 47.1504061,114.490968 45.3265911,109.214926 L45.7618391,109.615865 L36.5153883,107.145835 L36.8489643,107.145835 L27.5568181,109.615865 L27.9926373,109.214926 L27.3357669,111.141784 L27.3334822,111.149624 C27.2220998,111.476087 26.8616778,111.652477 26.5281019,111.543283 C26.1950971,111.434089 26.0151718,111.080748 26.1265541,110.754285" id="Fill-196" fill="#717791"></path>
            <path d="M2.06660768,94.4157991 C1.95452019,98.0921472 1.7064484,101.750959 1.59777474,105.422782 L1.44585922,110.930233 L1.33490967,116.441078 L1.33490967,116.442209 L0.129826964,116.160501 C1.06351003,114.265477 2.12691871,112.424191 3.38150198,110.703961 C4.63380937,108.984863 6.08298107,107.391345 7.73356886,106.022402 C9.38188077,104.651196 11.2293329,103.513615 13.1911484,102.646995 C15.1529638,101.776415 17.2211771,101.172835 19.3132872,100.773466 C19.6569462,100.708413 19.9892259,100.931856 20.0552266,101.274092 C20.1212274,101.615762 19.8942076,101.946118 19.5505485,102.011737 C17.5363876,102.395833 15.5660375,102.973392 13.706637,103.798152 C11.8472365,104.620649 10.1061821,105.692611 8.54662986,106.989713 C5.40818027,109.582785 3.0742571,113.036822 1.27232275,116.707513 L1.27061584,116.710341 C1.1169934,117.023162 0.737489067,117.152702 0.422847547,116.999969 C0.195827717,116.889662 0.064395183,116.661693 0.066671071,116.42637 L0.066671071,116.425239 C0.0894299513,114.582822 0.103654251,112.740406 0.164534256,110.897989 C0.220862485,109.055573 0.28174249,107.213156 0.384157451,105.371871 C0.588987373,101.690997 0.792679352,98.0010729 1.38554818,94.3501804 C1.41513473,94.1646376 1.59151605,94.0384912 1.77813887,94.0684722 C1.95053739,94.0961905 2.07172842,94.2472268 2.06660768,94.4157991" id="Fill-198" fill="#717791"></path>
            <path d="M1.90372283,86.4217598 C1.81772283,86.7507669 1.73272283,87.0843165 1.65072283,87.4217598" id="Fill-200" fill="#FFFFFF"></path>
            <path d="M3.11414851,87.0914758 L3.14300185,87.6325017 L3.14300185,87.6348941 C3.15159646,87.7886917 2.93427559,87.9168564 2.65802025,87.9216412 C2.38237881,87.9260842 2.15155212,87.8050968 2.14357141,87.6516409 C2.14111581,87.6150713 2.15277993,87.5791851 2.17426645,87.5470585 L2.51313967,87.0347415 C2.57207414,86.9451971 2.75071926,86.8993996 2.91156126,86.9325516 C3.03311361,86.957501 3.10985121,87.0210706 3.11414851,87.0894251 L3.11414851,87.0914758 Z" id="Fill-202" fill="#717791"></path>
            <path d="M10.045172,68.4313787 C7.97107902,70.6260897 6.32468148,73.5011189 5.04517202,77.4313787" id="Fill-204" fill="#FFFFFF"></path>
            <path d="M10.8600635,68.5327557 C9.52213034,69.8975787 8.35113421,71.4094277 7.33184362,73.0349143 C6.31499006,74.662744 5.5071124,76.4165122 4.76625325,78.2036688 C4.69070512,78.3881835 4.47380885,78.4789765 4.28128295,78.4063421 C4.10216076,78.3389796 4.0089441,78.1497788 4.0582941,77.9752221 C4.60784587,76.0890718 5.3474865,74.2445106 6.28452711,72.4772699 C7.21364734,70.7082718 8.41266939,69.0406104 9.88768584,67.6224832 C10.1527136,67.3676772 10.5822413,67.3676772 10.847269,67.6224832 C11.1074227,67.8726031 11.110469,68.2767782 10.8600635,68.5327557" id="Fill-206" fill="#717791"></path>
            <path d="M62.4709073,67.3003974 C63.9661037,68.8718907 65.1785618,70.6896245 66.1667405,72.6014085 C67.1835865,74.5080625 67.8710395,76.5480968 68.5180211,78.583571 C69.7113677,82.6904296 70.4005071,86.8993185 70.9052764,91.1082073 C71.4117321,95.3205161 71.6939082,99.547645 71.892893,103.773064 C72.1076167,107.999053 72.1840628,112.225612 72.2565742,116.4516 L72.2565742,116.45217 L72.2565742,116.46243 C72.2633195,116.811271 71.9895749,117.099692 71.6450052,117.105962 C71.3892479,117.110522 71.1666547,116.957761 71.0666003,116.736031 C69.8322201,113.988625 68.322409,111.35066 66.3735947,109.061535 C64.4360226,106.76899 62.052702,104.854926 59.3624727,103.498893 C59.2686013,103.451583 59.2298162,103.336443 59.2764708,103.240683 C59.3220012,103.148343 59.4310494,103.109582 59.5232344,103.150623 C62.318015,104.396075 64.8632215,106.244019 66.9705491,108.514334 C69.0857461,110.782939 70.7855483,113.420334 72.1947428,116.18484 L71.0047688,116.46813 L71.0047688,116.46756 C70.9322574,112.254112 70.8558113,108.039523 70.6416497,103.834624 C70.4443512,99.6291551 70.1638614,95.4276763 69.6619026,91.2598276 C69.1633164,87.0948289 68.4803602,82.9457902 67.3190535,78.9500818 C66.1347006,74.9817335 64.3792501,71.1404954 61.5732274,68.1861793 L61.5692926,68.1816192 C61.3292743,67.9291087 61.3365816,67.5272579 61.5861557,67.2838674 C61.8346057,67.0404769 62.2308889,67.0478869 62.4709073,67.3003974" id="Fill-208" fill="#717791"></path>
            <path d="M36.3279317,0.566641994 C51.6278354,14.7095056 68.2351379,46.5660003 58.3589919,84.1406582 C51.7697021,109.210059 47.5187089,111.566642 47.5187089,111.566642 L36.4697984,111.566642 L36.2005299,111.566642 L25.1521758,111.566642 C25.1521758,111.566642 20.9011826,109.210059 14.3118927,84.1406582 C4.43574677,46.5660003 21.028028,14.7095056 36.3279317,0.566641994" id="Fill-210" fill="#FFFFFF"></path>
            <path d="M23.0499815,16.0363504 C26.6867223,16.2347466 30.2428528,15.112896 33.8447978,14.5917605 C38.9302037,13.8562023 44.2040867,14.3369954 49.0499815,15.977771 C47.0961975,13.2576978 45.1424134,10.5376246 43.1886294,7.81755148 C42.1627333,6.38898807 41.1304579,4.95379303 39.8720099,3.70594151 C38.9081663,2.74988166 37.1735958,1.09307968 35.6756367,1.05992154 C34.4293672,1.03284239 32.9209694,2.72556569 32.0591935,3.46333441 C29.5022823,5.65398252 27.3002882,8.22042295 25.5529592,11.0427337 C24.5682381,12.633772 23.7273397,14.3060478 23.0499815,16.0363504" id="Fill-212" fill="#FDBEBE"></path>
            <path d="M36.3279317,0.566641994 C51.6278354,14.7095056 68.2351379,46.5660003 58.3589919,84.1406582 C51.7697021,109.210059 47.5187089,111.566642 47.5187089,111.566642 L36.4697984,111.566642 L36.2005299,111.566642 L25.1521758,111.566642 C25.1521758,111.566642 20.9011826,109.210059 14.3118927,84.1406582 C4.43574677,46.5660003 21.028028,14.7095056 36.3279317,0.566641994 Z" id="Stroke-214" stroke="#717791" stroke-width="2.228" stroke-linecap="round" stroke-linejoin="round"></path>
            <g id="Group-219" transform="translate(22.851252, 106.671760)">
                <path d="M0.186312,0.73355 L27.806072,0.73355" id="Fill-216" fill="#FFFFFF"></path>
                <path d="M0.186312,0.73355 L27.806072,0.73355" id="Stroke-218" stroke="#717791" stroke-width="2.228" stroke-linecap="round" stroke-linejoin="round"></path>
            </g>
            <path d="M26.8070231,78.4320555 C37.6904563,77.2638229 48.7505831,77.9392867 58.8070231,79.8560612" id="Fill-220" fill="#FFFFFF"></path>
            <path d="M26.3474839,77.4529919 C29.0025317,76.9513192 31.7153833,76.8457568 34.4147661,76.7351676 C37.1175161,76.6436802 39.8258781,76.6542364 42.5286281,76.7603015 C45.2313781,76.8663666 47.9307609,77.0684432 50.6177972,77.3630126 C53.3037111,77.6641168 55.9744726,78.0722914 58.6255919,78.5644133 C58.9634357,78.6272481 59.1806209,78.9238282 59.1110319,79.2264404 C59.0408816,79.5295553 58.7097723,79.7240918 58.3713673,79.661257 L58.3685613,79.6607543 C55.7516753,79.1641083 53.1112187,78.7669926 50.4600993,78.4467866 C47.8095412,78.1200458 45.1443917,77.8842898 42.4719467,77.7440426 C39.800624,77.60279 37.1214445,77.5570463 34.4445098,77.6113356 C31.7636467,77.6460204 29.1029869,77.8883112 26.4131446,77.9516487 C26.2576916,77.9556701 26.1280538,77.8455836 26.1241254,77.7063417 C26.120197,77.5831856 26.217285,77.4776232 26.3474839,77.4529919" id="Fill-222" fill="#717791"></path>
            <path d="M14.4374769,81.1634295 C16.0901107,80.7826273 17.7578568,80.4500451 19.4374769,80.1634295" id="Fill-224" fill="#FFFFFF"></path>
            <path d="M14.2066956,79.8630649 C15.05454,79.6500704 15.9199563,79.4963261 16.7853726,79.3512651 C17.651338,79.2097795 18.5189507,79.0764664 19.3909565,78.9824832 C19.5699703,78.9630736 19.7314121,79.0825957 19.7522788,79.2485987 C19.7698507,79.3900842 19.6797947,79.5203327 19.5419651,79.5673243 L19.5210984,79.5744752 C18.6979645,79.8584679 17.8693394,80.1026199 17.0401652,80.3391103 C16.2093436,80.5715144 15.3796202,80.7952352 14.5317758,80.9602166 L14.4911408,80.9683891 C14.1605694,81.0322364 13.8365874,80.8355867 13.767398,80.5280982 C13.7009542,80.2323576 13.8969908,79.941214 14.2066956,79.8630649" id="Fill-226" fill="#717791"></path>
            <path d="M46.7689261,24.1393037 C47.0599261,24.2033037 47.3499261,24.2693037 47.6419261,24.3363037" id="Fill-228" fill="#FFFFFF"></path>
            <path d="M47.0265746,23.7397491 L47.3981485,23.7903151 C47.5849641,23.8155981 47.7215782,24.0483166 47.7038842,24.3091912 C47.6853672,24.5700658 47.5187145,24.7608375 47.3318989,24.7355545 C47.3035062,24.7321069 47.2730561,24.7211892 47.2471323,24.7085477 L46.9002478,24.5321413 L46.8981903,24.5309921 C46.7459397,24.4534192 46.667757,24.2189769 46.7233079,24.0069445 C46.769806,23.827665 46.8969559,23.7219361 47.0265746,23.7397491" id="Fill-230" fill="#717791"></path>
            <path d="M19.1480577,26.2820323 C27.5561341,23.2712174 34.3947326,22.7215422 41.1480577,23.7726755" id="Fill-232" fill="#FFFFFF"></path>
            <path d="M19.1621221,24.1605945 C20.9611913,23.7244454 22.7770377,23.3214566 24.623083,23.0207118 C26.4657728,22.7125981 28.3291544,22.4721865 30.206517,22.3363217 C32.0827611,22.2004569 33.9690715,22.1276886 35.8520264,22.1866401 C37.7333037,22.236841 39.610107,22.4026421 41.4505599,22.707532 C41.6289569,22.7374683 41.7447192,22.8802414 41.7083687,23.0266991 C41.6759329,23.1602611 41.5288532,23.2505306 41.3689111,23.2440828 C39.516155,23.1680906 37.6751429,23.1137447 35.8358085,23.1229559 C33.9964741,23.139536 32.1593767,23.2040142 30.3329048,23.3744209 C28.5064329,23.5448276 26.6883496,23.7778702 24.8842472,24.0809178 C23.082941,24.3908738 21.286668,24.7349111 19.5088498,25.14619 C19.1777808,25.2240244 18.8332901,25.0655922 18.7387788,24.7934021 C18.645386,24.5230541 18.8360863,24.2407317 19.1621221,24.1605945" id="Fill-234" fill="#717791"></path>
            <g id="Group-239" transform="translate(23.764083, 14.322740)">
                <path d="M0.319080851,1.96965 C3.67805957,0.82515 8.07593191,0.13165 12.8903574,0.13165 C17.7357617,0.13165 22.1601872,0.83415 25.5274638,1.99265" id="Fill-236" fill="#FFFFFF"></path>
                <path d="M0.319080851,1.96965 C3.67805957,0.82515 8.07593191,0.13165 12.8903574,0.13165 C17.7357617,0.13165 22.1601872,0.83415 25.5274638,1.99265" id="Stroke-238" stroke="#717791" stroke-width="2.228" stroke-linecap="round" stroke-linejoin="round"></path>
            </g>
            <path d="M45.7724134,43.0403626 C45.7724134,48.2866889 41.2948621,52.5403626 35.7724134,52.5403626 C30.2493838,52.5403626 25.7724134,48.2866889 25.7724134,43.0403626 C25.7724134,37.7934845 30.2493838,33.5403626 35.7724134,33.5403626 C41.2948621,33.5403626 45.7724134,37.7934845 45.7724134,43.0403626" id="Fill-240" fill="#B8D4FF"></path>
            <path d="M41.4433165,51.076618 C40.6152927,51.6704681 39.6742799,52.1292269 38.6714323,52.414297 C37.6725197,52.689442 36.6117722,52.8730558 35.560019,52.7528522 C34.5127628,52.6447792 33.4778735,52.3999608 32.5098783,51.9880703 C31.5385102,51.5827966 30.6548351,50.9939091 29.8745927,50.3024625 C29.0994095,49.6055019 28.4237241,48.7944031 27.9161168,47.8868105 C27.4096338,46.9792179 27.0538028,45.9933275 26.862115,44.9765592 C26.656936,43.9597908 26.6670544,42.9121444 26.8126472,41.8904135 C26.9621749,40.8686826 27.2752837,39.8629421 27.7682755,38.9470786 C28.7328979,37.1092864 30.3119332,35.5802741 32.2265626,34.705765 C33.1788181,34.2679591 34.199654,33.9531138 35.2497208,33.846695 C36.296977,33.7375192 37.3582866,33.7865932 38.3886787,33.9977767 C40.4511495,34.4295172 42.3337372,35.5587697 43.6969129,37.1170059 C45.0685206,38.66256 45.8600057,40.7418623 45.6801227,42.750035 C45.6716907,42.8388092 45.5924298,42.9044249 45.5019261,42.8967054 C45.4288487,42.8900887 45.371511,42.8388092 45.3557712,42.7720907 L45.3552091,42.7687823 C44.9161822,40.8885328 44.1764135,39.1621219 42.9385937,37.7571729 C41.6962769,36.3764853 40.0025663,35.3928005 38.16776,35.0332924 C36.3352022,34.6864663 34.3857204,34.8904816 32.709436,35.696618 C31.0162875,36.4707735 29.6266915,37.8321624 28.7733716,39.4532573 C28.335469,40.2610477 28.0594611,41.1482388 27.9267974,42.0508689 C27.7980686,42.9534989 27.7851395,43.8836986 27.9667089,44.7813661 C28.1364735,45.679585 28.4495823,46.5507857 28.8953548,47.354165 C29.3428137,48.1575444 29.9409245,48.8754578 30.6267284,49.4935692 C31.9944011,50.7419225 33.797728,51.5056016 35.6555818,51.6555805 C36.1221533,51.6610944 36.5864762,51.7245046 37.0564205,51.7046544 C37.5252405,51.694178 37.9951847,51.6467582 38.4600698,51.5612923 C39.3904021,51.3914633 40.2954383,51.0650387 41.1470717,50.6189619 L41.1498824,50.6173078 C41.2842325,50.5472809 41.4523107,50.5969062 41.5242639,50.7292405 C41.5905957,50.8499955 41.5529327,50.9977688 41.4433165,51.076618" id="Fill-242" fill="#717791"></path>
            <path d="M35.8804147,114.864391 C29.5563991,78.1070757 33.2034355,68.9763944 35.8486917,64.8799566 L35.8804147,64.8643914 L35.895998,64.8799566 C38.5412542,68.9763944 42.1882905,78.1070757 35.8804147,114.864391" id="Fill-244" fill="#FFFFFF"></path>
            <path d="M35.8804147,114.864391 C29.5563991,78.1070757 33.2034355,68.9763944 35.8486917,64.8799566 L35.8804147,64.8643914 L35.895998,64.8799566 C38.5412542,68.9763944 42.1882905,78.1070757 35.8804147,114.864391 Z" id="Stroke-246" stroke="#717791" stroke-width="2.228" stroke-linecap="round" stroke-linejoin="round"></path>
            <path d="M36.2602055,65.2448452 L36.2032055,65.2728452 L36.2322055,65.2168452 C36.2322055,65.2168452 36.2322055,65.2448452 36.2602055,65.2448452" id="Fill-248" fill="#FFFFFF"></path>
            <path d="M36.2602055,65.2448452 L36.2032055,65.2728452 L36.2322055,65.2168452 C36.2322055,65.2168452 36.2322055,65.2448452 36.2602055,65.2448452 Z" id="Stroke-250" stroke="#717791" stroke-width="2.228" stroke-linecap="round" stroke-linejoin="round"></path>
            <path d="M32.8823406,121.68009 C33.1807037,120.703467 33.5155251,119.70552 33.8823406,118.68009" id="Fill-252" fill="#FFFFFF"></path>
            <path d="M32.6348596,122.060897 C32.6595755,121.772125 32.7070765,121.489245 32.7534189,121.20583 C32.8125055,120.926165 32.8588479,120.643286 32.9287477,120.366835 C32.9967166,120.090385 33.0546446,119.811256 33.1330405,119.538556 C33.2056436,119.263713 33.2832672,118.991013 33.3724763,118.722599 C33.4041436,118.62777 33.4848567,118.587053 33.5528255,118.630449 C33.6018712,118.662058 33.6308353,118.728492 33.6316076,118.798676 L33.6316076,118.804034 C33.6350833,119.100843 33.6258148,119.393366 33.6119121,119.684282 C33.6038022,119.976269 33.5756105,120.262363 33.5570736,120.551136 C33.5404676,120.840444 33.4999179,121.122788 33.4728849,121.408346 C33.4319491,121.69069 33.3933304,121.973033 33.3319267,122.249484 L33.3280648,122.265556 C33.2701368,122.525934 33.0704782,122.67166 32.8831777,122.590761 C32.716345,122.518969 32.6147778,122.29288 32.6348596,122.060897" id="Fill-254" fill="#717791"></path>
            <path d="M40.3810441,118.807086 C41.1915417,121.888297 41.8353179,125.022891 42.2303873,128.204196 C42.6155525,131.3855 42.7068917,134.617964 42.4356254,137.827072 C42.1682107,141.036736 41.5288364,144.210812 40.6110428,147.28813 C39.7026031,150.371565 38.4915337,153.346566 37.170417,156.256506 L37.1698668,156.257618 C37.0334082,156.566796 36.6741041,156.70637 36.3670724,156.567908 C36.2317144,156.50674 36.12827,156.401085 36.0682943,156.275969 L36.0594905,156.257618 C35.1598546,154.383646 34.321295,152.473528 33.5988351,150.51392 C32.873624,148.555981 32.2303981,146.559116 31.7511426,144.516653 C31.2669349,142.47697 30.9054298,140.402255 30.7166989,138.310301 C30.5367717,136.218347 30.5428243,134.109155 30.7882296,132.031659 C30.81244,131.82758 30.9962188,131.681332 31.1987056,131.705799 C31.3808337,131.727486 31.5161918,131.881519 31.5233449,132.060575 C31.6135836,134.118608 31.7346355,136.156067 31.9750886,138.180179 C32.2028863,140.204848 32.5605397,142.213947 33.0590536,144.190237 C33.5619693,146.165415 34.1606261,148.118906 34.8638277,150.038476 C35.5692302,151.956935 36.3412113,153.854818 37.1698668,155.732127 L36.0594905,155.732127 L36.0594905,155.731015 C37.3839086,152.869454 38.5498587,149.938383 39.4946139,146.941139 C40.4338668,143.942227 41.0991021,140.858792 41.4028324,137.731983 C41.714266,134.605174 41.6597926,131.444444 41.3384548,128.304845 C41.0308728,125.162466 40.4806368,122.03955 39.8990374,118.918301 C39.8737265,118.782619 39.9617643,118.651941 40.0954716,118.625806 C40.2236766,118.601338 40.3474797,118.681969 40.3810441,118.807086" id="Fill-256" fill="#717791"></path>
        </g>
        <text id="Quick-Provision" font-family="Roboto-Bold, Roboto" font-size="29" font-weight="bold" letter-spacing="7.23066616">
            <tspan x="132.293447" y="189" fill="#0A950C">Quick</tspan>
            <tspan x="243" y="189" fill="#000000"></tspan>
            <tspan x="55.3820124" y="223" fill="#000000">Provision</tspan>
        </text>
        <text id="WP" font-family="Roboto-Bold, Roboto" font-size="29" font-weight="bold" letter-spacing="7.23066616" fill="#000000">
            <tspan x="184.472261" y="154">WP</tspan>
        </text>
    </g>
</svg>